<?xml version="1.0"?>
<svg xmlns="http://www.w3.org/2000/svg" viewBox="0 0 64 64" width="512" height="512"><g id="Porter"><path d="M19,18H17.889A6.973,6.973,0,0,0,20,13v-.542c.083-.073.171-.135.251-.215A6.006,6.006,0,0,0,16,2H10A5.992,5.992,0,0,0,6,12.461V13a6.973,6.973,0,0,0,2.111,5H7a5.006,5.006,0,0,0-5,5V37a3,3,0,0,0,3,3H6V59a3,3,0,0,0,3,3h8a3,3,0,0,0,3-3V40h1a3,3,0,0,0,3-3V23A5.006,5.006,0,0,0,19,18Zm-4.414,2L13,21.586,11.414,20ZM10,21.414l1.312,1.312L10,23.382Zm6,0v1.968l-1.312-.656ZM7.163,5.171A4.014,4.014,0,0,1,10,4h6a4,4,0,0,1,4,4,4.134,4.134,0,0,1-.064.66,1,1,0,0,0-.62-.608l-6-2a.991.991,0,0,0-.632,0l-6,2a.992.992,0,0,0-.608.586A3.9,3.9,0,0,1,6,8,4.008,4.008,0,0,1,7.163,5.171ZM8,13V9.721l5-1.667,5,1.667V13A5,5,0,0,1,8,13ZM7,20H8v5a1,1,0,0,0,1.447.895L12,24.618V33h2V24.618L16.553,25.9A1,1,0,0,0,18,25V20h1a3,3,0,0,1,3,3v7H20V27H18V38H8V27H6v3H4V23A3,3,0,0,1,7,20ZM20,32h2v2H20ZM6,34H4V32H6ZM4,37V36H6v2H5A1,1,0,0,1,4,37ZM18,59a1,1,0,0,1-1,1H14V45H12V60H9a1,1,0,0,1-1-1V40H18Zm3-21H20V36h2v1A1,1,0,0,1,21,38Z"/><path d="M61,52H60V39a1,1,0,0,0-1-1H54V35a1,1,0,0,0-1-1H50V31a1,1,0,0,0-1-1H44V26h1a1,1,0,0,0,1-1V21a1,1,0,0,0-1-1H37a1,1,0,0,0-1,1v4a1,1,0,0,0,1,1h1v4H34V23a1,1,0,0,0-1-1H29a1,1,0,0,0-1,1V57a1,1,0,0,0,1,1h3.1a5,5,0,0,0,9.8,0h6.2a5,5,0,0,0,9.8,0H61a1,1,0,0,0,1-1V53A1,1,0,0,0,61,52Zm-5,0V50h2v2ZM40.974,54h8.052a4.954,4.954,0,0,0-.925,2H41.9A4.954,4.954,0,0,0,40.974,54ZM46,38V36h2v2ZM40,50h2v2H40Zm4,2V49a1,1,0,0,0-1-1H40V44h3a1,1,0,0,0,1-1V40H54v3a1,1,0,0,0,1,1h3v4H55a1,1,0,0,0-1,1v3ZM40,42V40h2v2Zm18,0H56V40h2Zm-6-6v2H50V36ZM38,22h6v2H38Zm2,4h2v4H40Zm8,6v2H45a1,1,0,0,0-1,1v3H39a1,1,0,0,0-1,1V52H34V32ZM32,24V52H30V24ZM30,54h3.026a4.954,4.954,0,0,0-.925,2H30Zm7,6a3,3,0,1,1,3-3A3,3,0,0,1,37,60Zm16,0a3,3,0,1,1,3-3A3,3,0,0,1,53,60Zm7-4H57.9a4.954,4.954,0,0,0-.925-2H60Z"/></g></svg>
